<mxfile host="Electron" modified="2024-05-30T09:41:40.152Z" agent="Mozilla/5.0 (X11; Linux x86_64) AppleWebKit/537.36 (KHTML, like Gecko) draw.io/23.1.5 Chrome/120.0.6099.109 Electron/28.1.0 Safari/537.36" etag="88ag8MNAF3TKglP34NES" version="23.1.5" type="device">
  <diagram name="Page-1" id="LRn8TLaNKPoY7hggMyDW">
    <mxGraphModel dx="18590" dy="2600" grid="1" gridSize="10" guides="1" tooltips="1" connect="1" arrows="1" fold="1" page="1" pageScale="1" pageWidth="4681" pageHeight="3300" math="0" shadow="0">
      <root>
        <mxCell id="0" />
        <mxCell id="1" parent="0" />
        <mxCell id="eba38B-syZUnnpOzunN--1" value="Evaluationssysteme" style="text;strokeColor=none;fillColor=none;html=1;fontSize=120;fontStyle=1;verticalAlign=middle;align=center;" vertex="1" parent="1">
          <mxGeometry x="-14040" width="4670" height="160" as="geometry" />
        </mxCell>
        <mxCell id="eba38B-syZUnnpOzunN--2" value="&lt;font style=&quot;font-size: 80px;&quot;&gt;Patroni&lt;/font&gt;" style="text;strokeColor=none;fillColor=none;html=1;fontSize=24;fontStyle=1;verticalAlign=middle;align=center;" vertex="1" parent="1">
          <mxGeometry x="-13880" y="250" width="100" height="40" as="geometry" />
        </mxCell>
      </root>
    </mxGraphModel>
  </diagram>
</mxfile>
